<?xml version="1.0" encoding="utf-8"?>
<!-- Generator: Adobe Illustrator 21.0.2, SVG Export Plug-In . SVG Version: 6.00 Build 0)  -->
<svg version="1.1" id="Layer_1" xmlns="http://www.w3.org/2000/svg" xmlns:xlink="http://www.w3.org/1999/xlink" x="0px" y="0px"
	 viewBox="0 0 289.1 285.9" style="enable-background:new 0 0 289.1 285.9;" xml:space="preserve">
<style type="text/css">
	.st0{fill:#7A7F8E;}
	.st1{fill:#FFFFFF;stroke:#384269;stroke-width:1.5301;stroke-miterlimit:10;}
	.st2{fill:none;stroke:#384269;stroke-width:1.5301;stroke-miterlimit:10;}
	.st3{fill:none;stroke:#384269;stroke-width:1.5301;stroke-linecap:round;stroke-miterlimit:10;}
</style>
<g>
	<circle class="st0" cx="125.3" cy="147.6" r="113.8"/>
	<g>
		<path class="st1" d="M139.2,7c0,0,7.5,20.3,20.3,35.3s31.5,39.8,36,42.8c4.5,3,11.3,11.3,11.3,15s-0.8,28.5-0.8,28.5l-3,2.3
			l0.8,16.5l-4.5,2.3l0.8,15l-5.3,3l1.5,35.3c0,0,3,3,11.3-4.5c7.5-7.5,16.5-19.5,24.8-19.5c8.3,0.8,14.3,5.3,16.5,9
			c2.3,3.8,4.5,4.5,7.5,4.5c3,0,9,3,9,3s-6.8,0.8-9.8,3c-3,3-9.8,6.8-15,17.3c-5.3,10.5-21.8,49.5-42.8,57.1
			c-21,7.5-27.8,7.5-42.8,7.5c-15,0-34.5,1.5-52.5-12.8c-18-14.3-39.8-30-39.8-30s-14.3-9.8-21.8-12.8c-7.5-3-18.8-7.5-18.8-7.5
			l-0.8-2.3c0,0,10.5-3,12-2.3c1.5,0.8-15-8.3-18-11.3c-2.3-3-6-9-6-9l-5.3-3l0.8-5.3l16.5,0.8c0,0,6.8,6,24.8,10.5
			c18,4.5,23.3,10.5,37.5,11.3c14.3,0.8,21.8,0.8,21.8,0.8l1.5-6c0,0-12.8-24.8-26.3-38.3s-21-24-27.8-30s-9-7.5-8.3-9.8
			c0.8-2.3,0.8-3.8,0.8-3.8s-12.8-8.3-15-12.8s0-8.3,0-8.3S19.1,85.8,19.8,81.3c0.8-4.5,0.8-9,0.8-9s-3.8-2.3-3.8-3
			c0-1.5,6-0.8,6-0.8s-1.5-6-3-9.8c-1.5-3.8-2.3-6-2.3-6s9.8,10.5,29.3,16.5c19.5,6,31.5,14.3,48.8,19.5c16.5,4.5,27,7.5,35.3,24.8
			c7.5,18,15,28.5,15,28.5s2.3-19.5-0.8-23.3c-3-4.5,0-17.3-1.5-26.3s-6-7.5-6.8-18s2.3-36,2.3-42c-0.8-6,2.3-6.8,2.3-6.8L139.2,7z"
			/>
		<path class="st2" d="M166.9,75.3c0,0-9.8-9-15-21.8s-11.3-27-11.3-27"/>
		<path class="st2" d="M168.4,104.6c0,0-9.8-10.5-16.5-27.8c-6-17.3-15.8-33.8-15.8-33.8"/>
		<path class="st2" d="M163.9,115.9c0,0-11.3-18.8-18-31.5c-6-12.8-9.8-24-9.8-24"/>
		<path class="st2" d="M159.4,126.4c0,0-9-15-12.8-22.5s-3.8-9.8-3.8-9.8"/>
		<line class="st2" x1="161.7" y1="156.4" x2="145.2" y2="124.9"/>
		<line class="st2" x1="54.3" y1="211.2" x2="10.1" y2="196.2"/>
		<path class="st2" d="M56.6,220.2c0,0,0,2.3-9-0.8c-9-3-18-6-18-6"/>
		<path class="st2" d="M157.9,234.5c0,0-15.8-6-27-12c-11.3-6-14.3-7.5-14.3-9.8c0-2.3-0.8-9-0.8-9"/>
		<line class="st2" x1="149.7" y1="220.2" x2="104.6" y2="199.2"/>
		<line class="st2" x1="133.9" y1="202.9" x2="96.4" y2="186.4"/>
		<line class="st2" x1="125.7" y1="190.2" x2="84.4" y2="170.7"/>
		<line class="st2" x1="118.9" y1="175.2" x2="73.9" y2="157.1"/>
		<line class="st2" x1="99.4" y1="157.9" x2="59.6" y2="142.1"/>
		<path class="st2" d="M96.4,143.6c0,0-18-5.3-30-11.3c-11.3-6-24-11.3-24-11.3"/>
		<path class="st2" d="M91.9,130.1c0,0-14.3-2.3-30-10.5c-15-8.3-33.8-20.3-33.8-20.3"/>
		<path class="st2" d="M97.1,117.4c0,0-9.8,0.8-24.8-6c-15-7.5-24.8-12.8-35.3-20.3c-9.8-7.5-17.3-12-17.3-12"/>
		<path class="st2" d="M96.4,105.3c0,0-12.8-1.5-28.5-9.8S22.1,70.8,22.1,70.8"/>
		<path class="st2" d="M192.5,212.7c0,0-3.8-3-9.8-9c-3-3-6.8-6.8-10.5-11.3c-12-14.3-14.3-20.3-19.5-30c-4.5-9.8-8.3-18-8.3-18"/>
		<line class="st2" x1="196.2" y1="202.9" x2="182" y2="203.7"/>
		<path class="st1" d="M258.5,184.2c-1.5,0-3.8-1.5-4.5-3c-0.8-0.8-1.5-2.3-1.5-3.8c0-0.8-0.8-1.5,0-2.3c0-0.8,0.8-2.3,1.5-3
			c2.3-1.5,4.5-2.3,7.5-1.5c2.3,0.8,4.5,2.3,5.3,5.3C267.5,180.4,263.8,184.2,258.5,184.2z"/>
		<path class="st1" d="M267.5,179.7c-0.8,0-1.5,0-1.5,0.8s0,1.5,0,2.3s0,1.5,0.8,2.3c0.8,1.5,2.3,2.3,3,2.3c2.3,0.8,3.8,0.8,6,1.5
			c2.3,0,4.5,0,6.8-1.5c0.8-0.8,1.5-1.5,1.5-3c0-0.8,0-1.5-0.8-2.3c-0.8-1.5-1.5-3-3-3.8c-3.8-2.3-7.5,2.3-11.3,0.8"/>
		<path class="st1" d="M270.5,163.1c1.5-0.8,3-0.8,3.8,0c0.8,0.8,1.5,1.5,2.3,3c0,1.5,0,2.3,0,3.8c-0.8,3-1.5,6-3.8,8.3
			c-2.3,1.5-4.5,2.3-6.8,0C262.3,172.9,265.3,165.4,270.5,163.1z"/>
		<path class="st3" d="M265.3,181.9c-2.3,2.3-4.5,5.3-6,8.3c-1.5,3.8-2.3,8.3-2.3,12.8c0,3.8,0,8.3,1.5,11.3c0.8,1.5,2.3,3,3.8,5.3"
			/>
	</g>
</g>
</svg>
